<?xml version="1.0" encoding="utf-8"?>
<!-- Generator: Adobe Illustrator 24.3.0, SVG Export Plug-In . SVG Version: 6.00 Build 0)  -->
<svg version="1.1" id="Layer_1" xmlns="http://www.w3.org/2000/svg" x="0px" y="0px"
     viewBox="0 0 31.3 31" style="enable-background:new 0 0 31.3 31;" xml:space="preserve">
<style type="text/css">
	.st0{display:none;fill:#048B9A;}
	.st1{fill:#FFFFFF;}
</style>
    <polygon class="st0" points="-8.2,-40 -8.2,40 71.8,40 "/>
    <g id="FINAL_COLOR">
	<path class="st1" d="M15.8,31C7.3,31.2,0.2,24.4,0,15.8S6.6,0.2,15.2,0l0,0c0.6,0,1,0.5,0.9,1.1c0,0.1,0,0.2-0.1,0.3
		c-0.9,1.9-0.1,4.2,1.8,5.1c1.4,0.6,3,0.5,4.1-0.5c0.2-0.1,0.4-0.2,0.6-0.2c0.1,0,0.3,0,0.4,0.1c0.3,0.2,0.5,0.5,0.5,0.9l0,0
		c0,2.1,1.7,3.9,3.9,3.9c0.6,0,1.2-0.2,1.8-0.4c0.3-0.1,0.6-0.1,0.8,0c0.3,0.1,0.5,0.3,0.6,0.6c0.4,1.3,0.7,2.7,0.7,4.1
		C31.6,23.4,25,30.6,16.5,31H15.8z M13.9,2.1C6.5,3,1.2,9.7,2.1,17.2c0.8,6.9,6.8,12.1,13.7,11.9h0.6c7.5-0.3,13.3-6.6,13-14.1
		c0,0,0,0,0,0c0-0.9-0.2-1.7-0.4-2.6c-0.5,0.1-1,0.2-1.6,0.2l0,0c-2.6,0-4.9-1.8-5.6-4.3c-0.7,0.3-1.4,0.4-2.1,0.4
		c-3.2,0-5.8-2.6-5.8-5.8C13.9,2.7,13.9,2.4,13.9,2.1L13.9,2.1z"/>
        <path class="st1" d="M11.5,12.1c-1.1,0-2.1-0.9-2.1-2.1c0-1.1,0.9-2.1,2.1-2.1c1.1,0,2,0.9,2.1,2C13.6,11.1,12.7,12.1,11.5,12.1
		C11.5,12.1,11.5,12.1,11.5,12.1z M11.5,8.8c-0.7,0-1.2,0.6-1.2,1.2c0,0.7,0.6,1.2,1.2,1.2c0.7,0,1.2-0.6,1.2-1.2c0,0,0,0,0,0
		C12.7,9.3,12.2,8.8,11.5,8.8z"/>
        <circle class="st1" cx="8.5" cy="14.3" r="1.2"/>
        <circle class="st1" cx="24.5" cy="17.3" r="1.2"/>
        <path class="st1" d="M17.1,16.9c-0.4-0.2-0.9-0.3-1.4-0.3c-0.5,0-1.1,0.1-1.5,0.4c-0.4,0.3-0.8,0.6-1,1.1c-0.5,1-0.5,2.1,0,3.1
		c0.3,0.5,0.6,0.8,1.1,1.1c0.5,0.3,1,0.4,1.5,0.4c0.5,0,0.9-0.1,1.3-0.3c0.5-0.2,0.9-0.5,1.2-0.8l1.3,1.4c-0.5,0.5-1.2,1-1.9,1.3
		c-1.5,0.7-3.3,0.6-4.7-0.2c-1.6-0.9-2.5-2.6-2.5-4.4c0-0.9,0.2-1.8,0.7-2.6c0.5-0.8,1.1-1.4,1.9-1.8c0.8-0.4,1.7-0.6,2.7-0.6
		c0.7,0,1.4,0.2,2.1,0.4c0.7,0.3,1.3,0.7,1.8,1.2l-1.3,1.6C18,17.4,17.6,17.1,17.1,16.9z"/>
</g>
</svg>
